# xmcd CD database file
#
# Track frame offsets:
#	150
#	16944
#	28697
#	35586
#	48974
#	62321
#	74787
#	93374
#	111504
#	123927
#	142242
#	158956
#	169841
#	179984
#	194130
#	206563
#
# Disc length: 2915 seconds
#
# Revision: 0
# Processed by: cddbd v1.5.1PL0 Copyright (c) Steve Scherf et al.
# Submitted via: CDex 1.50
#
DISCID=f70b6110
DTITLE=Various Artist - Tribute to the Beatles [CD 2)
DYEAR=2001
DGENRE=Jazz
TTITLE0=Orchestra Golden Nightingale - Fool on the hill
TTITLE1=Inishkea - Nowegian wood
TTITLE2=Schotland - Mull of Kintyre
TTITLE3=Richard Romance Orchestra - Girl
TTITLE4=The Ray Hamilton Orchestra - Penny Lane
TTITLE5=Gino Marinello - And I love her
TTITLE6=Gino Marinello - The long and winding road
TTITLE7=The Ray Hamilton Orchestra - Another girl
TTITLE8=Gino Marinello - With a little help from my friends
TTITLE9=Gino Marinello - Lucy in the sky with diamonds
TTITLE10=The Gino Marinello Orchestra - Ebony and ivory
TTITLE11=Gino Marinello - Eleanor Rigby
TTITLE12=The Ray Hamilton Orchestra - Help
TTITLE13=The Ray Hamilton Orchestra - Hope of deliverance
TTITLE14=Moods Orchestra - I should have known better
TTITLE15=The Ray Hamilton Orchestra - Can't buy me love
EXTD=YEAR: 2001
EXTT0=
EXTT1=
EXTT2=
EXTT3=
EXTT4=
EXTT5=
EXTT6=
EXTT7=
EXTT8=
EXTT9=
EXTT10=
EXTT11=
EXTT12=
EXTT13=
EXTT14=
EXTT15=
PLAYORDER=
